<svg width="260" height="22" viewBox="0 0 260 22" fill="none" xmlns="http://www.w3.org/2000/svg">
<path d="M249.436 21.9954H11.6748C5.85698 21.9954 1.14062 17.2269 1.14062 11.3458C1.14062 5.46375 5.85698 0.695312 11.6748 0.695312H249.436C255.253 0.695312 259.97 5.46375 259.97 11.3458C259.969 17.2278 255.253 21.9954 249.436 21.9954Z" fill="#F2F2F2"/>
<path d="M134.521 21.9952H121.779C115.905 21.9952 111.143 17.1803 111.143 11.2412C111.143 5.30202 115.699 0.695068 121.573 0.695068L134.529 0.750388C140.404 0.750388 145.159 5.77224 145.159 11.7114C145.158 17.6514 140.396 21.9952 134.521 21.9952Z" fill="#E0E0E0"/>
<path d="M127.933 21.9954H11.6748C5.85698 21.9954 1.14062 17.2269 1.14062 11.3458C1.14062 5.46375 5.85698 0.695312 11.6748 0.695312H127.933C133.751 0.695312 138.466 5.46375 138.466 11.3458C138.466 17.2278 133.751 21.9954 127.933 21.9954Z" fill="#EDF2FD"/>
<g opacity="0.2">
<path d="M15.6992 0.695068L28.5606 21.9952H37.6668L24.2864 0.695068H15.6992Z" fill="#4876EB"/>
</g>
<g opacity="0.2">
<path d="M0.91196 11.0627C0.0297434 17.755 7.97284 21.7703 9.29667 21.7703C10.6205 21.7703 18.1962 21.9952 18.1962 21.9952L7.0897 1.6936C7.0897 1.6936 1.79418 4.3705 0.91196 11.0627Z" fill="#4876EB"/>
</g>
<g opacity="0.2">
<path d="M34.5293 0.695068L47.3916 21.9952H56.4968L43.1165 0.695068H34.5293Z" fill="#4876EB"/>
</g>
<g opacity="0.2">
<path d="M53.3594 0.695068L66.2208 21.9952H75.326L61.9457 0.695068H53.3594Z" fill="#4876EB"/>
</g>
<g opacity="0.2">
<path d="M72.1895 0.695068L85.0517 21.9952H94.157L80.7767 0.695068H72.1895Z" fill="#4876EB"/>
</g>
<g opacity="0.2">
<path d="M91.0195 0.695068L103.882 21.9952H112.987L99.6068 0.695068H91.0195Z" fill="#4876EB"/>
</g>
<g opacity="0.2">
<path d="M109.854 0.695068L122.715 21.9952H131.82L118.44 0.695068H109.854Z" fill="#4876EB"/>
</g>
<g opacity="0.2">
<path d="M128.682 0.695068L141.544 21.9952H150.649L137.269 0.695068H128.682Z" fill="white"/>
</g>
</svg>
