<svg width="526" height="336" viewBox="0 0 526 336" fill="none" xmlns="http://www.w3.org/2000/svg">
<path d="M102.385 23.4254C102.385 23.4254 103.434 23.1131 105.379 23.2675C107.283 23.4227 110.196 24.2276 112.732 26.7305C113.974 27.9726 115.114 29.6108 115.763 31.6042C116.398 33.5851 116.658 35.8908 116.14 38.2019C115.915 39.3592 115.49 40.5058 114.9 41.5873C114.327 42.6776 113.568 43.7011 112.646 44.5863C110.84 46.4012 108.358 47.629 105.688 48.0189C103.01 48.3634 100.293 47.8476 98.0729 46.5859C96.9511 45.9809 95.9494 45.1984 95.1084 44.3025C94.2558 43.4192 93.5436 42.4278 93.0211 41.3731C91.9127 39.2851 91.5561 36.9919 91.6461 34.912C91.7467 32.816 92.414 30.9287 93.2833 29.3985C95.0687 26.3031 97.6634 24.7424 99.4585 24.0804C101.292 23.4076 102.385 23.4254 102.385 23.4254C102.403 23.5102 101.32 23.5985 99.5591 24.3329C97.8328 25.0574 95.3696 26.6395 93.7104 29.6429C92.9029 31.1295 92.2922 32.9418 92.2207 34.9405C92.1607 36.925 92.5207 39.1022 93.5877 41.0724C94.0899 42.0691 94.7712 43.0024 95.5841 43.8341C96.3845 44.6791 97.335 45.4143 98.3985 45.9818C100.503 47.1686 103.064 47.6469 105.594 47.323C108.117 46.9518 110.459 45.8016 112.173 44.0911C113.048 43.2576 113.771 42.2931 114.32 41.2634C114.884 40.2426 115.294 39.1602 115.516 38.0645C116.025 35.8783 115.798 33.6833 115.216 31.7862C114.622 29.8785 113.555 28.2965 112.385 27.0812C109.994 24.6327 107.204 23.7716 105.349 23.5387C103.457 23.3049 102.39 23.512 102.385 23.4254Z" fill="#E0E0E0"/>
<path d="M106.977 7.73469C106.97 7.74273 106.913 7.61066 106.805 7.34119C106.687 7.04405 106.53 6.6452 106.327 6.12856C105.9 5.01318 105.285 3.40526 104.486 1.31906L104.604 1.39045C101.745 1.80001 97.9843 2.33807 93.4366 2.98945L93.5884 2.82883C93.4154 4.90878 93.2239 7.22073 93.0182 9.69418L93.0085 9.81821L92.8938 9.86729C90.781 10.7658 88.6346 11.9963 86.6021 13.6042L86.4935 13.6899L86.3673 13.6319C84.431 12.7458 82.335 11.7875 80.1551 10.7899L80.4543 10.7141C78.3097 13.5766 76.0344 16.6149 73.6445 19.8039L73.6365 19.4595C74.9948 21.0924 76.4916 22.8904 78.0264 24.7339L78.1384 24.8677L78.0722 25.031C77.21 27.1467 76.5348 29.5907 76.226 32.1462L76.2039 32.3282L76.0336 32.3925C74.0558 33.1429 71.875 33.971 69.6536 34.8133L69.8522 34.4778C70.3332 38.0265 70.8512 41.8544 71.3825 45.777L71.0904 45.4959C73.2041 45.6824 75.5261 45.8867 77.879 46.0946L78.0775 46.1125L78.1543 46.299C79.0298 48.4244 80.268 50.632 81.8187 52.6414L81.944 52.8038L81.8593 52.9912C80.9741 54.9561 80.0094 57.1003 79.0342 59.265L78.931 58.8492C81.7737 61.0344 84.8211 63.3776 87.9092 65.752L87.4785 65.7618C89.1288 64.3627 90.9098 62.8529 92.7041 61.3324L92.8647 61.1959L93.0588 61.2771C95.1911 62.1694 97.5987 62.8404 100.072 63.1509H100.076H100.078C100.204 63.2518 99.7971 62.9261 100.361 63.3767L100.364 63.3829L100.368 63.3954L100.378 63.4213L100.396 63.4722L100.434 63.5739L100.509 63.7773L100.659 64.1833L100.959 64.9944L101.558 66.6131C101.956 67.6901 102.352 68.7626 102.747 69.8307L102.375 69.6058C106.152 69.0883 109.88 68.5779 113.553 68.0746L113.258 68.3887C113.46 66.0786 113.66 63.7907 113.858 61.5252L113.876 61.3173L114.067 61.237C116.337 60.284 118.451 59.0312 120.345 57.5428L120.505 57.4161L120.691 57.5018C122.788 58.4699 124.853 59.4238 126.892 60.3652L126.492 60.4669C128.827 57.3715 131.107 54.3475 133.331 51.3994L133.341 51.8027C131.858 50.0083 130.4 48.246 128.968 46.514L128.847 46.3677L128.92 46.1919C129.871 43.871 130.489 41.4707 130.788 39.0865L130.811 38.9036L130.981 38.8394C133.172 38.0158 135.294 37.218 137.368 36.4382L137.183 36.7505C136.658 32.7735 136.163 29.0196 135.69 25.4468L135.93 25.6779C133.543 25.4593 131.303 25.2541 129.143 25.0569L128.992 25.0435L128.935 24.9034C127.938 22.4719 126.682 20.3643 125.28 18.5253L125.195 18.4137L125.253 18.2879C126.288 16.0126 127.22 13.962 128.101 12.0258L128.163 12.2765C124.698 9.58532 121.745 7.29211 119.218 5.32995L119.412 5.32549C117.313 7.07975 115.592 8.51992 114.158 9.71917L114.105 9.76289L114.043 9.73701C111.757 8.77065 109.957 8.33789 108.766 8.0818C108.188 7.97115 107.746 7.88638 107.422 7.82481C107.113 7.77217 106.97 7.74273 106.977 7.73469C106.983 7.72756 107.138 7.73737 107.43 7.76682C107.73 7.8034 108.185 7.85872 108.788 7.96758C109.991 8.18798 111.81 8.58684 114.128 9.52822L114.014 9.54606C115.432 8.32807 117.135 6.86649 119.211 5.08456L119.306 5.00337L119.406 5.0801C121.95 7.01996 124.922 9.2873 128.411 11.9472L128.542 12.0463L128.474 12.198C127.605 14.1405 126.687 16.1964 125.666 18.4798L125.639 18.2424C127.077 20.102 128.367 22.2399 129.393 24.7098L129.185 24.5554C131.347 24.7428 133.587 24.9364 135.976 25.1435L136.186 25.1622L136.216 25.3754C136.702 28.9464 137.213 32.6985 137.754 36.6728L137.786 36.904L137.569 36.986C135.498 37.7731 133.378 38.5788 131.19 39.4095L131.384 39.1624C131.085 41.601 130.461 44.0575 129.495 46.4328L129.446 46.1107C130.881 47.8391 132.343 49.5978 133.831 51.3886L133.995 51.5858L133.84 51.792C131.622 54.7446 129.348 57.773 127.018 60.8729L126.859 61.0862L126.618 60.9755C124.577 60.0368 122.51 59.0865 120.412 58.1219L120.757 58.0809C118.818 59.6085 116.654 60.8952 114.328 61.8749L114.537 61.5876C114.341 63.8532 114.142 66.141 113.943 68.4512L113.919 68.7278L113.646 68.7653C109.973 69.2703 106.246 69.7834 102.469 70.3027L102.194 70.3402L102.097 70.0779C101.703 69.0098 101.305 67.9372 100.907 66.8602L100.309 65.2416L100.009 64.4305L99.8589 64.0245L99.7839 63.8211L99.7468 63.7193L99.7283 63.6685L99.7194 63.6435L99.715 63.631L99.7124 63.6247C100.276 64.0754 99.8677 63.7497 99.993 63.8496H99.9913L99.9877 63.8487C97.4495 63.5311 94.981 62.8422 92.7958 61.9267L93.1506 61.8714C91.3564 63.391 89.5745 64.8998 87.9233 66.2981L87.7115 66.4774L87.4926 66.3088C84.4054 63.9308 81.3606 61.5858 78.5197 59.3979L78.3035 59.2311L78.4164 58.9812C79.3943 56.8174 80.3625 54.675 81.2494 52.711L81.29 53.0599C79.7032 50.9996 78.4394 48.7358 77.5463 46.5577L77.8216 46.7621C75.4696 46.5497 73.1485 46.3409 71.0348 46.15L70.7771 46.1268L70.7427 45.868C70.2211 41.9446 69.7119 38.1157 69.2397 34.5652L69.207 34.3172L69.4383 34.2297C71.6623 33.3937 73.8448 32.5727 75.8253 31.8277L75.6329 32.073C75.9568 29.4622 76.6549 26.9682 77.5436 24.8106L77.5886 25.1078C76.0618 23.258 74.5721 21.4538 73.22 19.8155L73.0797 19.6451L73.212 19.4702C75.6161 16.2918 77.9054 13.2643 80.0633 10.4116L80.1842 10.2528L80.3634 10.3357C82.538 11.3458 84.6278 12.3158 86.5597 13.2125L86.325 13.2402C88.4007 11.618 90.5895 10.383 92.7402 9.48717L92.6158 9.65938C92.8408 7.18771 93.0509 4.87755 93.2406 2.79849L93.2539 2.65573L93.3924 2.63788C97.9482 2.04004 101.714 1.54571 104.578 1.17005L104.667 1.15845L104.697 1.24232C105.442 3.32852 106.015 4.93466 106.413 6.05003C106.597 6.58184 106.739 6.99141 106.845 7.29747C106.937 7.58033 106.983 7.72756 106.977 7.73469Z" fill="#E0E0E0"/>
<path fill-rule="evenodd" clip-rule="evenodd" d="M52.9793 73.6434C56.4733 74.0868 59.8499 75.0006 63.0307 76.3274L70.4185 70.067L83.1096 79.8332L79.1107 88.7009C81.2235 91.4474 82.9957 94.4937 84.3495 97.7827L93.949 98.6376L96.0919 114.616L87.0669 118.027C86.6301 121.562 85.7246 124.975 84.4104 128.191L90.6024 135.662L80.9447 148.492L72.173 144.45C69.4565 146.586 66.4435 148.375 63.1895 149.744L62.3449 159.449L46.5393 161.618L43.1662 152.491C39.6704 152.05 36.2956 151.134 33.114 149.806L25.7244 156.067L13.0333 146.301L17.033 137.432C14.9202 134.686 13.1507 131.639 11.7951 128.351L2.19733 127.495L0.0527344 111.516L9.07858 108.107C9.51544 104.572 10.4201 101.158 11.7342 97.9416L5.5422 90.4712L15.1999 77.6409L23.9725 81.6839C26.689 79.5477 29.702 77.7578 32.9551 76.389L33.8006 66.6852L49.6035 64.5178L52.9793 73.6434ZM46.4899 95.8286C37.1278 97.1126 30.5652 105.828 31.836 115.295C33.106 124.761 41.7276 131.394 51.0897 130.111C60.4536 128.826 67.0136 120.111 65.7436 110.644C64.4727 101.177 55.8537 94.5437 46.4899 95.8286Z" fill="#E0E0E0"/>
<path d="M442.013 327.757H81.778C75.3677 327.757 70.148 322.499 70.148 315.985V83.939C70.148 77.4249 75.3677 72.167 81.778 72.167H442.013C448.423 72.167 453.643 77.4249 453.643 83.939V315.985C453.644 322.499 448.424 327.757 442.013 327.757Z" fill="#F7F7F8" stroke="#EDF2FD" stroke-width="2.45221"/>
<path d="M456.274 333.67H69.5436C61.5588 333.67 55.062 327.122 55.062 319.015V313.544H470.755V319.015C470.756 327.122 464.26 333.67 456.274 333.67Z" fill="#F7F7F8" stroke="#EDF2FD" stroke-width="2.45221"/>
<path d="M443.428 81.1926H79.2793V299.106H443.428V81.1926Z" fill="#EDF2FD"/>
<path d="M223.848 309.899L229.036 318.243H302.05L306.868 309.899H223.848Z" fill="#263238"/>
<path d="M433.788 298.409H89.6679C88.0722 298.409 86.7793 297.1 86.7793 295.488V91.4906C86.7793 89.8773 88.0722 88.5701 89.6679 88.5701H433.788C435.383 88.5701 436.676 89.8773 436.676 91.4906V295.49C436.676 297.101 435.383 298.409 433.788 298.409Z" fill="#EDF2FD"/>
<path d="M436.301 298.715H86.4043L86.7785 104.251H436.301V298.715Z" fill="#FAFAFA"/>
<path d="M115.476 96.6734C115.476 98.2339 114.225 99.4981 112.683 99.4981C111.139 99.4981 109.889 98.233 109.889 96.6734C109.889 95.1129 111.139 93.8486 112.683 93.8486C114.225 93.8486 115.476 95.1129 115.476 96.6734Z" fill="#263238"/>
<path d="M98.5398 96.6734C98.5398 98.2339 97.2894 99.4981 95.7451 99.4981C94.2025 99.4981 92.9512 98.233 92.9512 96.6734C92.9512 95.1129 94.2025 93.8486 95.7451 93.8486C97.2894 93.8486 98.5398 95.1129 98.5398 96.6734Z" fill="#263238"/>
<path d="M106.668 96.6734C106.668 98.2339 105.417 99.4981 103.874 99.4981C102.331 99.4981 101.08 98.233 101.08 96.6734C101.08 95.1129 102.331 93.8486 103.874 93.8486C105.417 93.8486 106.668 95.1129 106.668 96.6734Z" fill="#263238"/>
<path d="M451.552 309.898C451.552 310.038 365.89 310.15 260.246 310.15C154.565 310.15 68.9219 310.037 68.9219 309.898C68.9219 309.758 154.565 309.645 260.246 309.645C365.89 309.645 451.552 309.758 451.552 309.898Z" fill="#263238"/>
<path d="M506.156 264.088C509.857 262.157 514.215 261.906 518.324 262.593C520.531 262.962 522.833 263.63 524.335 265.306C525.837 266.983 526.121 269.932 524.397 271.373C523.37 272.23 521.938 272.36 520.607 272.344C517.39 272.306 513.822 271.734 511.252 273.691C509.786 274.807 508.81 276.663 507.057 277.212C505.342 277.749 503.407 276.726 502.498 275.161C501.589 273.596 501.558 271.64 501.983 269.877C501.982 269.877 502.428 266.033 506.156 264.088Z" fill="#EDF2FD"/>
<path d="M497.677 247.538C499.94 250.806 504.339 249.725 506.378 247.729C508.418 245.734 509.28 242.844 510.065 240.087C511.857 233.788 513.664 227.18 512.332 220.765C511.933 218.847 511.224 216.934 509.892 215.512C508.559 214.09 506.509 213.243 504.635 213.744C502.417 214.336 501.039 216.532 500.043 218.621C497.115 224.762 495.564 231.569 495.541 238.386C495.53 241.572 495.9 244.911 497.677 247.538Z" fill="#EDF2FD"/>
<path d="M491.463 252.227C493.92 249.279 494.386 244.978 493.293 241.285C492.199 237.591 489.729 234.449 486.883 231.884C483.545 228.876 479.622 226.535 475.405 225.036C473.744 224.447 471.994 223.981 470.243 224.149C468.491 224.318 466.727 225.224 465.91 226.8C464.702 229.129 465.861 231.954 467.113 234.259C469.32 238.32 471.843 242.205 474.653 245.867C476.913 248.813 479.501 251.718 482.945 253.049C486.389 254.381 489.967 254.223 491.792 251.809" fill="#EDF2FD"/>
<path d="M497.524 296.834C497.566 296.837 497.635 296.308 497.729 295.35C497.833 294.269 497.963 292.912 498.119 291.297C498.306 289.592 498.552 287.563 499.021 285.352C499.488 283.148 500.218 280.759 501.157 278.337C502.13 275.929 503.315 273.74 504.701 271.989C506.077 270.231 507.677 268.958 509.181 268.224C510.679 267.475 512.024 267.171 512.953 267.036C513.89 266.939 514.414 266.864 514.415 266.822C514.416 266.779 513.89 266.773 512.927 266.799C511.973 266.863 510.573 267.108 508.994 267.834C507.408 268.545 505.711 269.837 504.268 271.632C502.814 273.42 501.585 275.657 500.595 278.108C499.64 280.573 498.92 282.986 498.474 285.238C498.029 287.487 497.825 289.538 497.692 291.258C497.565 292.979 497.516 294.372 497.493 295.335C497.472 296.299 497.482 296.833 497.524 296.834Z" fill="#4F4F4F"/>
<path d="M497.801 293.716C497.822 293.715 497.834 293.478 497.84 293.027C497.839 292.51 497.838 291.858 497.835 291.057C497.831 289.348 497.832 286.873 497.922 283.817C498.072 277.706 498.592 271.129 499.597 261.856C500.549 253.136 501.826 242.989 503.175 236.391C503.464 234.891 503.755 233.541 504.029 232.358C504.29 231.173 504.513 230.152 504.729 229.324C504.914 228.546 505.064 227.913 505.184 227.41C505.282 226.97 505.324 226.736 505.303 226.73C505.283 226.723 505.202 226.946 505.067 227.376C504.919 227.872 504.731 228.496 504.501 229.264C504.25 230.083 503.993 231.097 503.7 232.278C503.394 233.455 503.072 234.802 502.755 236.3C501.421 242.279 500.009 250.633 498.994 259.929C497.987 269.221 497.533 277.681 497.493 283.808C497.457 286.871 497.521 289.351 497.599 291.063C497.647 291.863 497.686 292.514 497.718 293.032C497.751 293.482 497.78 293.717 497.801 293.716Z" fill="#4F4F4F"/>
<path d="M497.84 277.398C497.882 277.396 497.875 276.666 497.826 275.34C497.751 274.017 497.571 272.105 497.203 269.764C496.812 267.428 496.266 264.653 495.409 261.639C495.038 260.262 494.164 256.959 492.049 252.026C489.262 245.341 485.475 239.875 482.181 236.49C481.409 235.591 480.547 234.943 479.86 234.308C479.503 234.004 479.189 233.7 478.868 233.46C478.546 233.235 478.246 233.026 477.967 232.832C476.882 232.083 476.275 231.687 476.253 231.723C476.156 231.857 478.681 233.36 481.87 236.791C485.046 240.213 488.728 245.641 491.493 252.27C493.034 255.865 494.109 259.073 494.872 261.795C495.753 264.78 496.339 267.527 496.781 269.84C497.201 272.158 497.444 274.05 497.591 275.361C497.712 276.672 497.798 277.4 497.84 277.398Z" fill="#4F4F4F"/>
<path d="M482.238 306.184L483.856 328.585H512.32L513.938 306.184H482.238Z" fill="#EDF2FD"/>
<path d="M517.335 297.354H479.49V306.184H517.335V297.354Z" fill="#EDF2FD"/>
<path d="M479.49 327.729V330.176H481.269H516.709V327.729H479.49Z" fill="#EDF2FD"/>
<path d="M483.013 334.483L481.27 330.176H515.355L513.321 334.483H483.013Z" fill="#EDF2FD"/>
<path d="M513.411 313.505C513.418 313.51 513.373 313.58 513.279 313.71C513.166 313.862 513.026 314.049 512.854 314.28C512.45 314.803 511.894 315.522 511.195 316.426L511.122 316.521L511.051 316.421C510.008 314.964 508.616 313.017 506.977 310.725H507.212C506 312.459 504.65 314.392 503.2 316.467L503.075 316.647L502.934 316.477C501.454 314.697 499.846 312.763 498.177 310.755L498.451 310.751C498.368 310.857 498.279 310.97 498.189 311.083C496.714 312.954 495.287 314.763 493.936 316.475L493.794 316.654L493.664 316.467C492.22 314.401 490.87 312.471 489.651 310.726L489.884 310.738C487.906 313.016 486.229 314.948 484.941 316.431L484.854 316.532L484.787 316.418C484.136 315.311 483.616 314.429 483.24 313.789C483.078 313.503 482.947 313.273 482.843 313.089C482.755 312.93 482.714 312.845 482.722 312.839C482.729 312.835 482.785 312.91 482.888 313.062C483.003 313.238 483.148 313.46 483.327 313.735C483.723 314.363 484.268 315.229 484.952 316.316L484.797 316.303C486.064 314.802 487.714 312.847 489.66 310.541L489.783 310.395L489.894 310.552C491.124 312.289 492.486 314.21 493.943 316.266L493.671 316.259C495.017 314.545 496.442 312.732 497.914 310.859C498.004 310.745 498.093 310.632 498.176 310.527L498.311 310.355L498.45 310.523C500.115 312.534 501.718 314.472 503.194 316.256L502.928 316.267C504.391 314.203 505.754 312.28 506.979 310.554L507.097 310.386L507.212 310.554C508.817 312.872 510.18 314.839 511.2 316.312L511.055 316.308C511.781 315.427 512.359 314.727 512.78 314.217C512.968 313.998 513.119 313.82 513.242 313.676C513.347 313.559 513.404 313.5 513.411 313.505Z" fill="#4F4F4F"/>
<path d="M514.335 306.036C514.335 306.135 507.203 306.215 498.407 306.215C489.608 306.215 482.477 306.135 482.477 306.036C482.477 305.937 489.608 305.857 498.407 305.857C507.203 305.857 514.335 305.937 514.335 306.036Z" fill="#4F4F4F"/>
<path d="M515.772 330.417C515.772 330.516 508.02 330.596 498.461 330.596C488.897 330.596 481.148 330.516 481.148 330.417C481.148 330.318 488.898 330.238 498.461 330.238C508.02 330.238 515.772 330.318 515.772 330.417Z" fill="#4F4F4F"/>
</svg>
