<svg width="84" height="29" viewBox="0 0 84 29" fill="none" xmlns="http://www.w3.org/2000/svg">
<path d="M5.472 23V9.368H0.096V6.2H14.736V9.368H9.36V23H5.472ZM23.8277 23V20.48L23.5877 19.928V15.416C23.5877 14.616 23.3397 13.992 22.8437 13.544C22.3637 13.096 21.6197 12.872 20.6117 12.872C19.9237 12.872 19.2437 12.984 18.5717 13.208C17.9157 13.416 17.3557 13.704 16.8917 14.072L15.5477 11.456C16.2517 10.96 17.0997 10.576 18.0917 10.304C19.0837 10.032 20.0917 9.896 21.1157 9.896C23.0837 9.896 24.6117 10.36 25.6997 11.288C26.7877 12.216 27.3317 13.664 27.3317 15.632V23H23.8277ZM19.8917 23.192C18.8837 23.192 18.0197 23.024 17.2997 22.688C16.5797 22.336 16.0277 21.864 15.6437 21.272C15.2597 20.68 15.0677 20.016 15.0677 19.28C15.0677 18.512 15.2517 17.84 15.6197 17.264C16.0037 16.688 16.6037 16.24 17.4197 15.92C18.2357 15.584 19.2997 15.416 20.6117 15.416H24.0437V17.6H21.0197C20.1397 17.6 19.5317 17.744 19.1957 18.032C18.8757 18.32 18.7157 18.68 18.7157 19.112C18.7157 19.592 18.8997 19.976 19.2677 20.264C19.6517 20.536 20.1717 20.672 20.8277 20.672C21.4517 20.672 22.0117 20.528 22.5077 20.24C23.0037 19.936 23.3637 19.496 23.5877 18.92L24.1637 20.648C23.8917 21.48 23.3957 22.112 22.6757 22.544C21.9557 22.976 21.0277 23.192 19.8917 23.192ZM36.8859 27.848C35.6699 27.848 34.4939 27.696 33.3579 27.392C32.2379 27.104 31.3019 26.664 30.5499 26.072L32.0379 23.384C32.5819 23.832 33.2699 24.184 34.1019 24.44C34.9499 24.712 35.7819 24.848 36.5979 24.848C37.9259 24.848 38.8859 24.552 39.4779 23.96C40.0859 23.368 40.3899 22.488 40.3899 21.32V19.376L40.6299 16.136L40.5819 12.872V10.088H44.1339V20.84C44.1339 23.24 43.5099 25.008 42.2619 26.144C41.0139 27.28 39.2219 27.848 36.8859 27.848ZM36.3099 22.376C35.1099 22.376 34.0219 22.12 33.0459 21.608C32.0859 21.08 31.3099 20.352 30.7179 19.424C30.1419 18.48 29.8539 17.384 29.8539 16.136C29.8539 14.872 30.1419 13.776 30.7179 12.848C31.3099 11.904 32.0859 11.176 33.0459 10.664C34.0219 10.152 35.1099 9.896 36.3099 9.896C37.3979 9.896 38.3579 10.12 39.1899 10.568C40.0219 11 40.6699 11.68 41.1339 12.608C41.5979 13.52 41.8299 14.696 41.8299 16.136C41.8299 17.56 41.5979 18.736 41.1339 19.664C40.6699 20.576 40.0219 21.256 39.1899 21.704C38.3579 22.152 37.3979 22.376 36.3099 22.376ZM37.0539 19.304C37.7099 19.304 38.2939 19.176 38.8059 18.92C39.3179 18.648 39.7179 18.272 40.0059 17.792C40.2939 17.312 40.4379 16.76 40.4379 16.136C40.4379 15.496 40.2939 14.944 40.0059 14.48C39.7179 14 39.3179 13.632 38.8059 13.376C38.2939 13.104 37.7099 12.968 37.0539 12.968C36.3979 12.968 35.8139 13.104 35.3019 13.376C34.7899 13.632 34.3819 14 34.0779 14.48C33.7899 14.944 33.6459 15.496 33.6459 16.136C33.6459 16.76 33.7899 17.312 34.0779 17.792C34.3819 18.272 34.7899 18.648 35.3019 18.92C35.8139 19.176 36.3979 19.304 37.0539 19.304Z" fill="#4F4F4F"/>
<path d="M51.596 22.716V9.612H54.158V10.438H52.59V21.89H54.158V22.716H51.596ZM56.053 20V10.2H60.281C61.373 10.2 62.2177 10.4193 62.815 10.858C63.4217 11.2967 63.725 11.9173 63.725 12.72C63.725 13.252 63.599 13.7 63.347 14.064C63.1044 14.428 62.7684 14.7033 62.339 14.89C61.919 15.0767 61.457 15.17 60.953 15.17L61.191 14.834C61.8164 14.834 62.353 14.932 62.801 15.128C63.2584 15.3147 63.613 15.5993 63.865 15.982C64.117 16.3553 64.243 16.822 64.243 17.382C64.243 18.2127 63.935 18.8567 63.319 19.314C62.7124 19.7713 61.793 20 60.561 20H56.053ZM57.089 19.146H60.547C61.4057 19.146 62.0637 19.0013 62.521 18.712C62.9784 18.4133 63.207 17.942 63.207 17.298C63.207 16.6633 62.9784 16.2013 62.521 15.912C62.0637 15.6133 61.4057 15.464 60.547 15.464H56.977V14.61H60.211C60.995 14.61 61.6017 14.4607 62.031 14.162C62.4697 13.8633 62.689 13.42 62.689 12.832C62.689 12.2347 62.4697 11.7913 62.031 11.502C61.6017 11.2033 60.995 11.054 60.211 11.054H57.089V19.146ZM69.3937 20.07C68.6844 20.07 68.0451 19.9113 67.4757 19.594C66.9157 19.2673 66.4724 18.824 66.1457 18.264C65.8191 17.6947 65.6557 17.046 65.6557 16.318C65.6557 15.5807 65.8191 14.932 66.1457 14.372C66.4724 13.812 66.9157 13.3733 67.4757 13.056C68.0357 12.7387 68.6751 12.58 69.3937 12.58C70.1217 12.58 70.7657 12.7387 71.3257 13.056C71.8951 13.3733 72.3384 13.812 72.6557 14.372C72.9824 14.932 73.1457 15.5807 73.1457 16.318C73.1457 17.046 72.9824 17.6947 72.6557 18.264C72.3384 18.824 71.8951 19.2673 71.3257 19.594C70.7564 19.9113 70.1124 20.07 69.3937 20.07ZM69.3937 19.188C69.9257 19.188 70.3971 19.0713 70.8077 18.838C71.2184 18.5953 71.5404 18.2593 71.7737 17.83C72.0164 17.3913 72.1377 16.8873 72.1377 16.318C72.1377 15.7393 72.0164 15.2353 71.7737 14.806C71.5404 14.3767 71.2184 14.0453 70.8077 13.812C70.3971 13.5693 69.9304 13.448 69.4077 13.448C68.8851 13.448 68.4184 13.5693 68.0077 13.812C67.5971 14.0453 67.2704 14.3767 67.0277 14.806C66.7851 15.2353 66.6637 15.7393 66.6637 16.318C66.6637 16.8873 66.7851 17.3913 67.0277 17.83C67.2704 18.2593 67.5971 18.5953 68.0077 18.838C68.4184 19.0713 68.8804 19.188 69.3937 19.188ZM77.4991 20.07C76.8084 20.07 76.2764 19.8833 75.9031 19.51C75.5297 19.1367 75.3431 18.6093 75.3431 17.928V11.026H76.3371V17.872C76.3371 18.3013 76.4444 18.6327 76.6591 18.866C76.8831 19.0993 77.2004 19.216 77.6111 19.216C78.0497 19.216 78.4137 19.09 78.7031 18.838L79.0531 19.552C78.8571 19.7293 78.6191 19.86 78.3391 19.944C78.0684 20.028 77.7884 20.07 77.4991 20.07ZM74.0271 13.476V12.65H78.5771V13.476H74.0271ZM82.3326 22.716H79.7706V21.89H81.3386V10.438H79.7706V9.612H82.3326V22.716Z" fill="#4876EB"/>
</svg>
